<?xml version="1.0" encoding="UTF-8" standalone="no"?>
<svg xmlns="http://www.w3.org/2000/svg"
   width="400" height="400" viewBox="0 0 800 800" version="1.0">
    <title>Simple Radial Gradient with gradientUnits=userSpaceOnUse</title>

    <desc>This image contains a packed set of circles that have been filled with
        a radial gradient. The gradient has 5 stops and is quite simple. The
        variable in this case is the gradient units which are specified as
        'userSpaceOnUse'. The expected behavior is for the gradient to apply to
        all of the image. Each circle should have its own portion of the
        gradient based on its position in user space.</desc>

    <defs>
        <style type="text/css">
            circle { stroke: #000; stroke-width:0.2; }
        </style>
        <radialGradient id="rainbow" gradientUnits="userSpaceOnUse">
            <stop offset="0%" stop-color="red" />
            <stop offset="25%" stop-color="orange" />
            <stop offset="50%" stop-color="yellow" />
            <stop offset="75%" stop-color="green" />
            <stop offset="100%" stop-color="blue" />
        </radialGradient>
    </defs>
    <g fill="url(#rainbow)">
        <circle cx="6.25" cy="25" r="25" />
        <circle cx="6.25" cy="75" r="25" />
        <circle cx="6.25" cy="125" r="25" />
        <circle cx="6.25" cy="175" r="25" />
        <circle cx="6.25" cy="225" r="25" />
        <circle cx="6.25" cy="275" r="25" />
        <circle cx="6.25" cy="325" r="25" />
        <circle cx="6.25" cy="375" r="25" />
        <circle cx="6.25" cy="425" r="25" />
        <circle cx="6.25" cy="475" r="25" />
        <circle cx="6.25" cy="525" r="25" />
        <circle cx="6.25" cy="575" r="25" />
        <circle cx="6.25" cy="625" r="25" />
        <circle cx="6.25" cy="675" r="25" />
        <circle cx="6.25" cy="725" r="25" />
        <circle cx="6.25" cy="775" r="25" />
        <circle cx="50" cy="0" r="25" />
        <circle cx="50" cy="50" r="25" />
        <circle cx="50" cy="100" r="25" />
        <circle cx="50" cy="150" r="25" />
        <circle cx="50" cy="200" r="25" />
        <circle cx="50" cy="250" r="25" />
        <circle cx="50" cy="300" r="25" />
        <circle cx="50" cy="350" r="25" />
        <circle cx="50" cy="400" r="25" />
        <circle cx="50" cy="450" r="25" />
        <circle cx="50" cy="500" r="25" />
        <circle cx="50" cy="550" r="25" />
        <circle cx="50" cy="600" r="25" />
        <circle cx="50" cy="650" r="25" />
        <circle cx="50" cy="700" r="25" />
        <circle cx="50" cy="750" r="25" />
        <circle cx="50" cy="800" r="25" />
        <circle cx="93.75" cy="25" r="25" />
        <circle cx="93.75" cy="75" r="25" />
        <circle cx="93.75" cy="125" r="25" />
        <circle cx="93.75" cy="175" r="25" />
        <circle cx="93.75" cy="225" r="25" />
        <circle cx="93.75" cy="275" r="25" />
        <circle cx="93.75" cy="325" r="25" />
        <circle cx="93.75" cy="375" r="25" />
        <circle cx="93.75" cy="425" r="25" />
        <circle cx="93.75" cy="475" r="25" />
        <circle cx="93.75" cy="525" r="25" />
        <circle cx="93.75" cy="575" r="25" />
        <circle cx="93.75" cy="625" r="25" />
        <circle cx="93.75" cy="675" r="25" />
        <circle cx="93.75" cy="725" r="25" />
        <circle cx="93.75" cy="775" r="25" />
        <circle cx="137.5" cy="0" r="25" />
        <circle cx="137.5" cy="50" r="25" />
        <circle cx="137.5" cy="100" r="25" />
        <circle cx="137.5" cy="150" r="25" />
        <circle cx="137.5" cy="200" r="25" />
        <circle cx="137.5" cy="250" r="25" />
        <circle cx="137.5" cy="300" r="25" />
        <circle cx="137.5" cy="350" r="25" />
        <circle cx="137.5" cy="400" r="25" />
        <circle cx="137.5" cy="450" r="25" />
        <circle cx="137.5" cy="500" r="25" />
        <circle cx="137.5" cy="550" r="25" />
        <circle cx="137.5" cy="600" r="25" />
        <circle cx="137.5" cy="650" r="25" />
        <circle cx="137.5" cy="700" r="25" />
        <circle cx="137.5" cy="750" r="25" />
        <circle cx="137.5" cy="800" r="25" />
        <circle cx="181.25" cy="25" r="25" />
        <circle cx="181.25" cy="75" r="25" />
        <circle cx="181.25" cy="125" r="25" />
        <circle cx="181.25" cy="175" r="25" />
        <circle cx="181.25" cy="225" r="25" />
        <circle cx="181.25" cy="275" r="25" />
        <circle cx="181.25" cy="325" r="25" />
        <circle cx="181.25" cy="375" r="25" />
        <circle cx="181.25" cy="425" r="25" />
        <circle cx="181.25" cy="475" r="25" />
        <circle cx="181.25" cy="525" r="25" />
        <circle cx="181.25" cy="575" r="25" />
        <circle cx="181.25" cy="625" r="25" />
        <circle cx="181.25" cy="675" r="25" />
        <circle cx="181.25" cy="725" r="25" />
        <circle cx="181.25" cy="775" r="25" />
        <circle cx="225" cy="0" r="25" />
        <circle cx="225" cy="50" r="25" />
        <circle cx="225" cy="100" r="25" />
        <circle cx="225" cy="150" r="25" />
        <circle cx="225" cy="200" r="25" />
        <circle cx="225" cy="250" r="25" />
        <circle cx="225" cy="300" r="25" />
        <circle cx="225" cy="350" r="25" />
        <circle cx="225" cy="400" r="25" />
        <circle cx="225" cy="450" r="25" />
        <circle cx="225" cy="500" r="25" />
        <circle cx="225" cy="550" r="25" />
        <circle cx="225" cy="600" r="25" />
        <circle cx="225" cy="650" r="25" />
        <circle cx="225" cy="700" r="25" />
        <circle cx="225" cy="750" r="25" />
        <circle cx="225" cy="800" r="25" />
        <circle cx="268.75" cy="25" r="25" />
        <circle cx="268.75" cy="75" r="25" />
        <circle cx="268.75" cy="125" r="25" />
        <circle cx="268.75" cy="175" r="25" />
        <circle cx="268.75" cy="225" r="25" />
        <circle cx="268.75" cy="275" r="25" />
        <circle cx="268.75" cy="325" r="25" />
        <circle cx="268.75" cy="375" r="25" />
        <circle cx="268.75" cy="425" r="25" />
        <circle cx="268.75" cy="475" r="25" />
        <circle cx="268.75" cy="525" r="25" />
        <circle cx="268.75" cy="575" r="25" />
        <circle cx="268.75" cy="625" r="25" />
        <circle cx="268.75" cy="675" r="25" />
        <circle cx="268.75" cy="725" r="25" />
        <circle cx="268.75" cy="775" r="25" />
        <circle cx="312.5" cy="0" r="25" />
        <circle cx="312.5" cy="50" r="25" />
        <circle cx="312.5" cy="100" r="25" />
        <circle cx="312.5" cy="150" r="25" />
        <circle cx="312.5" cy="200" r="25" />
        <circle cx="312.5" cy="250" r="25" />
        <circle cx="312.5" cy="300" r="25" />
        <circle cx="312.5" cy="350" r="25" />
        <circle cx="312.5" cy="400" r="25" />
        <circle cx="312.5" cy="450" r="25" />
        <circle cx="312.5" cy="500" r="25" />
        <circle cx="312.5" cy="550" r="25" />
        <circle cx="312.5" cy="600" r="25" />
        <circle cx="312.5" cy="650" r="25" />
        <circle cx="312.5" cy="700" r="25" />
        <circle cx="312.5" cy="750" r="25" />
        <circle cx="312.5" cy="800" r="25" />
        <circle cx="356.25" cy="25" r="25" />
        <circle cx="356.25" cy="75" r="25" />
        <circle cx="356.25" cy="125" r="25" />
        <circle cx="356.25" cy="175" r="25" />
        <circle cx="356.25" cy="225" r="25" />
        <circle cx="356.25" cy="275" r="25" />
        <circle cx="356.25" cy="325" r="25" />
        <circle cx="356.25" cy="375" r="25" />
        <circle cx="356.25" cy="425" r="25" />
        <circle cx="356.25" cy="475" r="25" />
        <circle cx="356.25" cy="525" r="25" />
        <circle cx="356.25" cy="575" r="25" />
        <circle cx="356.25" cy="625" r="25" />
        <circle cx="356.25" cy="675" r="25" />
        <circle cx="356.25" cy="725" r="25" />
        <circle cx="356.25" cy="775" r="25" />
        <circle cx="400" cy="0" r="25" />
        <circle cx="400" cy="50" r="25" />
        <circle cx="400" cy="100" r="25" />
        <circle cx="400" cy="150" r="25" />
        <circle cx="400" cy="200" r="25" />
        <circle cx="400" cy="250" r="25" />
        <circle cx="400" cy="300" r="25" />
        <circle cx="400" cy="350" r="25" />
        <circle cx="400" cy="400" r="25" />
        <circle cx="400" cy="450" r="25" />
        <circle cx="400" cy="500" r="25" />
        <circle cx="400" cy="550" r="25" />
        <circle cx="400" cy="600" r="25" />
        <circle cx="400" cy="650" r="25" />
        <circle cx="400" cy="700" r="25" />
        <circle cx="400" cy="750" r="25" />
        <circle cx="400" cy="800" r="25" />
        <circle cx="443.75" cy="25" r="25" />
        <circle cx="443.75" cy="75" r="25" />
        <circle cx="443.75" cy="125" r="25" />
        <circle cx="443.75" cy="175" r="25" />
        <circle cx="443.75" cy="225" r="25" />
        <circle cx="443.75" cy="275" r="25" />
        <circle cx="443.75" cy="325" r="25" />
        <circle cx="443.75" cy="375" r="25" />
        <circle cx="443.75" cy="425" r="25" />
        <circle cx="443.75" cy="475" r="25" />
        <circle cx="443.75" cy="525" r="25" />
        <circle cx="443.75" cy="575" r="25" />
        <circle cx="443.75" cy="625" r="25" />
        <circle cx="443.75" cy="675" r="25" />
        <circle cx="443.75" cy="725" r="25" />
        <circle cx="443.75" cy="775" r="25" />
        <circle cx="487.5" cy="0" r="25" />
        <circle cx="487.5" cy="50" r="25" />
        <circle cx="487.5" cy="100" r="25" />
        <circle cx="487.5" cy="150" r="25" />
        <circle cx="487.5" cy="200" r="25" />
        <circle cx="487.5" cy="250" r="25" />
        <circle cx="487.5" cy="300" r="25" />
        <circle cx="487.5" cy="350" r="25" />
        <circle cx="487.5" cy="400" r="25" />
        <circle cx="487.5" cy="450" r="25" />
        <circle cx="487.5" cy="500" r="25" />
        <circle cx="487.5" cy="550" r="25" />
        <circle cx="487.5" cy="600" r="25" />
        <circle cx="487.5" cy="650" r="25" />
        <circle cx="487.5" cy="700" r="25" />
        <circle cx="487.5" cy="750" r="25" />
        <circle cx="487.5" cy="800" r="25" />
        <circle cx="531.25" cy="25" r="25" />
        <circle cx="531.25" cy="75" r="25" />
        <circle cx="531.25" cy="125" r="25" />
        <circle cx="531.25" cy="175" r="25" />
        <circle cx="531.25" cy="225" r="25" />
        <circle cx="531.25" cy="275" r="25" />
        <circle cx="531.25" cy="325" r="25" />
        <circle cx="531.25" cy="375" r="25" />
        <circle cx="531.25" cy="425" r="25" />
        <circle cx="531.25" cy="475" r="25" />
        <circle cx="531.25" cy="525" r="25" />
        <circle cx="531.25" cy="575" r="25" />
        <circle cx="531.25" cy="625" r="25" />
        <circle cx="531.25" cy="675" r="25" />
        <circle cx="531.25" cy="725" r="25" />
        <circle cx="531.25" cy="775" r="25" />
        <circle cx="575" cy="0" r="25" />
        <circle cx="575" cy="50" r="25" />
        <circle cx="575" cy="100" r="25" />
        <circle cx="575" cy="150" r="25" />
        <circle cx="575" cy="200" r="25" />
        <circle cx="575" cy="250" r="25" />
        <circle cx="575" cy="300" r="25" />
        <circle cx="575" cy="350" r="25" />
        <circle cx="575" cy="400" r="25" />
        <circle cx="575" cy="450" r="25" />
        <circle cx="575" cy="500" r="25" />
        <circle cx="575" cy="550" r="25" />
        <circle cx="575" cy="600" r="25" />
        <circle cx="575" cy="650" r="25" />
        <circle cx="575" cy="700" r="25" />
        <circle cx="575" cy="750" r="25" />
        <circle cx="575" cy="800" r="25" />
        <circle cx="618.75" cy="25" r="25" />
        <circle cx="618.75" cy="75" r="25" />
        <circle cx="618.75" cy="125" r="25" />
        <circle cx="618.75" cy="175" r="25" />
        <circle cx="618.75" cy="225" r="25" />
        <circle cx="618.75" cy="275" r="25" />
        <circle cx="618.75" cy="325" r="25" />
        <circle cx="618.75" cy="375" r="25" />
        <circle cx="618.75" cy="425" r="25" />
        <circle cx="618.75" cy="475" r="25" />
        <circle cx="618.75" cy="525" r="25" />
        <circle cx="618.75" cy="575" r="25" />
        <circle cx="618.75" cy="625" r="25" />
        <circle cx="618.75" cy="675" r="25" />
        <circle cx="618.75" cy="725" r="25" />
        <circle cx="618.75" cy="775" r="25" />
        <circle cx="662.5" cy="0" r="25" />
        <circle cx="662.5" cy="50" r="25" />
        <circle cx="662.5" cy="100" r="25" />
        <circle cx="662.5" cy="150" r="25" />
        <circle cx="662.5" cy="200" r="25" />
        <circle cx="662.5" cy="250" r="25" />
        <circle cx="662.5" cy="300" r="25" />
        <circle cx="662.5" cy="350" r="25" />
        <circle cx="662.5" cy="400" r="25" />
        <circle cx="662.5" cy="450" r="25" />
        <circle cx="662.5" cy="500" r="25" />
        <circle cx="662.5" cy="550" r="25" />
        <circle cx="662.5" cy="600" r="25" />
        <circle cx="662.5" cy="650" r="25" />
        <circle cx="662.5" cy="700" r="25" />
        <circle cx="662.5" cy="750" r="25" />
        <circle cx="662.5" cy="800" r="25" />
        <circle cx="706.25" cy="25" r="25" />
        <circle cx="706.25" cy="75" r="25" />
        <circle cx="706.25" cy="125" r="25" />
        <circle cx="706.25" cy="175" r="25" />
        <circle cx="706.25" cy="225" r="25" />
        <circle cx="706.25" cy="275" r="25" />
        <circle cx="706.25" cy="325" r="25" />
        <circle cx="706.25" cy="375" r="25" />
        <circle cx="706.25" cy="425" r="25" />
        <circle cx="706.25" cy="475" r="25" />
        <circle cx="706.25" cy="525" r="25" />
        <circle cx="706.25" cy="575" r="25" />
        <circle cx="706.25" cy="625" r="25" />
        <circle cx="706.25" cy="675" r="25" />
        <circle cx="706.25" cy="725" r="25" />
        <circle cx="706.25" cy="775" r="25" />
        <circle cx="750" cy="0" r="25" />
        <circle cx="750" cy="50" r="25" />
        <circle cx="750" cy="100" r="25" />
        <circle cx="750" cy="150" r="25" />
        <circle cx="750" cy="200" r="25" />
        <circle cx="750" cy="250" r="25" />
        <circle cx="750" cy="300" r="25" />
        <circle cx="750" cy="350" r="25" />
        <circle cx="750" cy="400" r="25" />
        <circle cx="750" cy="450" r="25" />
        <circle cx="750" cy="500" r="25" />
        <circle cx="750" cy="550" r="25" />
        <circle cx="750" cy="600" r="25" />
        <circle cx="750" cy="650" r="25" />
        <circle cx="750" cy="700" r="25" />
        <circle cx="750" cy="750" r="25" />
        <circle cx="750" cy="800" r="25" />
        <circle cx="793.75" cy="25" r="25" />
        <circle cx="793.75" cy="75" r="25" />
        <circle cx="793.75" cy="125" r="25" />
        <circle cx="793.75" cy="175" r="25" />
        <circle cx="793.75" cy="225" r="25" />
        <circle cx="793.75" cy="275" r="25" />
        <circle cx="793.75" cy="325" r="25" />
        <circle cx="793.75" cy="375" r="25" />
        <circle cx="793.75" cy="425" r="25" />
        <circle cx="793.75" cy="475" r="25" />
        <circle cx="793.75" cy="525" r="25" />
        <circle cx="793.75" cy="575" r="25" />
        <circle cx="793.75" cy="625" r="25" />
        <circle cx="793.75" cy="675" r="25" />
        <circle cx="793.75" cy="725" r="25" />
        <circle cx="793.75" cy="775" r="25" />
    </g>
</svg>
