<?xml version="1.0" encoding="UTF-8" standalone="no"?>
<svg xmlns="http://www.w3.org/2000/svg" xmlns:xlink="http://www.w3.org/1999/xlink"
   width="400" height="400" viewBox="0 0 800 800" version="1.0">
    <title>Multiple use Elements with Simple Radial Gradient with gradientUnits=userSpaceOnUse</title>

    <desc>This image contains 4 use elements, each of which references a packed
        set of circles that have been filled with a radial gradient. The
        gradient has 5 stops and is quite simple. The variable in this case is
        the gradient units which are specified as 'userSpaceOnUse'. The expected
        behavior is ???</desc>

    <defs>
        <style type="text/css">
            circle { stroke: #000; stroke-width:0.2; }
        </style>
        <radialGradient id="rainbow" gradientUnits="userSpaceOnUse">
            <stop offset="0%" stop-color="red" />
            <stop offset="25%" stop-color="orange" />
            <stop offset="50%" stop-color="yellow" />
            <stop offset="75%" stop-color="green" />
            <stop offset="100%" stop-color="blue" />
        </radialGradient>
    </defs>
    <g fill="url(#rainbow)">
        <g id="patch0">
            <circle cx="25" cy="0" r="25" />
            <circle cx="25" cy="50" r="25" />
            <circle cx="25" cy="100" r="25" />
            <circle cx="25" cy="150" r="25" />
            <circle cx="25" cy="200" r="25" />
            <circle cx="25" cy="250" r="25" />
            <circle cx="25" cy="300" r="25" />
            <circle cx="25" cy="350" r="25" />
            <circle cx="25" cy="400" r="25" />
            <circle cx="68.75" cy="25" r="25" />
            <circle cx="68.75" cy="75" r="25" />
            <circle cx="68.75" cy="125" r="25" />
            <circle cx="68.75" cy="175" r="25" />
            <circle cx="68.75" cy="225" r="25" />
            <circle cx="68.75" cy="275" r="25" />
            <circle cx="68.75" cy="325" r="25" />
            <circle cx="68.75" cy="375" r="25" />
            <circle cx="112.5" cy="0" r="25" />
            <circle cx="112.5" cy="50" r="25" />
            <circle cx="112.5" cy="100" r="25" />
            <circle cx="112.5" cy="150" r="25" />
            <circle cx="112.5" cy="200" r="25" />
            <circle cx="112.5" cy="250" r="25" />
            <circle cx="112.5" cy="300" r="25" />
            <circle cx="112.5" cy="350" r="25" />
            <circle cx="112.5" cy="400" r="25" />
            <circle cx="156.25" cy="25" r="25" />
            <circle cx="156.25" cy="75" r="25" />
            <circle cx="156.25" cy="125" r="25" />
            <circle cx="156.25" cy="175" r="25" />
            <circle cx="156.25" cy="225" r="25" />
            <circle cx="156.25" cy="275" r="25" />
            <circle cx="156.25" cy="325" r="25" />
            <circle cx="156.25" cy="375" r="25" />
            <circle cx="200" cy="0" r="25" />
            <circle cx="200" cy="50" r="25" />
            <circle cx="200" cy="100" r="25" />
            <circle cx="200" cy="150" r="25" />
            <circle cx="200" cy="200" r="25" />
            <circle cx="200" cy="250" r="25" />
            <circle cx="200" cy="300" r="25" />
            <circle cx="200" cy="350" r="25" />
            <circle cx="200" cy="400" r="25" />
            <circle cx="243.75" cy="25" r="25" />
            <circle cx="243.75" cy="75" r="25" />
            <circle cx="243.75" cy="125" r="25" />
            <circle cx="243.75" cy="175" r="25" />
            <circle cx="243.75" cy="225" r="25" />
            <circle cx="243.75" cy="275" r="25" />
            <circle cx="243.75" cy="325" r="25" />
            <circle cx="243.75" cy="375" r="25" />
            <circle cx="287.5" cy="0" r="25" />
            <circle cx="287.5" cy="50" r="25" />
            <circle cx="287.5" cy="100" r="25" />
            <circle cx="287.5" cy="150" r="25" />
            <circle cx="287.5" cy="200" r="25" />
            <circle cx="287.5" cy="250" r="25" />
            <circle cx="287.5" cy="300" r="25" />
            <circle cx="287.5" cy="350" r="25" />
            <circle cx="287.5" cy="400" r="25" />
            <circle cx="331.25" cy="25" r="25" />
            <circle cx="331.25" cy="75" r="25" />
            <circle cx="331.25" cy="125" r="25" />
            <circle cx="331.25" cy="175" r="25" />
            <circle cx="331.25" cy="225" r="25" />
            <circle cx="331.25" cy="275" r="25" />
            <circle cx="331.25" cy="325" r="25" />
            <circle cx="331.25" cy="375" r="25" />
            <circle cx="375" cy="0" r="25" />
            <circle cx="375" cy="50" r="25" />
            <circle cx="375" cy="100" r="25" />
            <circle cx="375" cy="150" r="25" />
            <circle cx="375" cy="200" r="25" />
            <circle cx="375" cy="250" r="25" />
            <circle cx="375" cy="300" r="25" />
            <circle cx="375" cy="350" r="25" />
            <circle cx="375" cy="400" r="25" />
        </g>
        <g transform="translate(400,0)" id="patch1">
            <circle cx="25" cy="0" r="25" />
            <circle cx="25" cy="50" r="25" />
            <circle cx="25" cy="100" r="25" />
            <circle cx="25" cy="150" r="25" />
            <circle cx="25" cy="200" r="25" />
            <circle cx="25" cy="250" r="25" />
            <circle cx="25" cy="300" r="25" />
            <circle cx="25" cy="350" r="25" />
            <circle cx="25" cy="400" r="25" />
            <circle cx="68.75" cy="25" r="25" />
            <circle cx="68.75" cy="75" r="25" />
            <circle cx="68.75" cy="125" r="25" />
            <circle cx="68.75" cy="175" r="25" />
            <circle cx="68.75" cy="225" r="25" />
            <circle cx="68.75" cy="275" r="25" />
            <circle cx="68.75" cy="325" r="25" />
            <circle cx="68.75" cy="375" r="25" />
            <circle cx="112.5" cy="0" r="25" />
            <circle cx="112.5" cy="50" r="25" />
            <circle cx="112.5" cy="100" r="25" />
            <circle cx="112.5" cy="150" r="25" />
            <circle cx="112.5" cy="200" r="25" />
            <circle cx="112.5" cy="250" r="25" />
            <circle cx="112.5" cy="300" r="25" />
            <circle cx="112.5" cy="350" r="25" />
            <circle cx="112.5" cy="400" r="25" />
            <circle cx="156.25" cy="25" r="25" />
            <circle cx="156.25" cy="75" r="25" />
            <circle cx="156.25" cy="125" r="25" />
            <circle cx="156.25" cy="175" r="25" />
            <circle cx="156.25" cy="225" r="25" />
            <circle cx="156.25" cy="275" r="25" />
            <circle cx="156.25" cy="325" r="25" />
            <circle cx="156.25" cy="375" r="25" />
            <circle cx="200" cy="0" r="25" />
            <circle cx="200" cy="50" r="25" />
            <circle cx="200" cy="100" r="25" />
            <circle cx="200" cy="150" r="25" />
            <circle cx="200" cy="200" r="25" />
            <circle cx="200" cy="250" r="25" />
            <circle cx="200" cy="300" r="25" />
            <circle cx="200" cy="350" r="25" />
            <circle cx="200" cy="400" r="25" />
            <circle cx="243.75" cy="25" r="25" />
            <circle cx="243.75" cy="75" r="25" />
            <circle cx="243.75" cy="125" r="25" />
            <circle cx="243.75" cy="175" r="25" />
            <circle cx="243.75" cy="225" r="25" />
            <circle cx="243.75" cy="275" r="25" />
            <circle cx="243.75" cy="325" r="25" />
            <circle cx="243.75" cy="375" r="25" />
            <circle cx="287.5" cy="0" r="25" />
            <circle cx="287.5" cy="50" r="25" />
            <circle cx="287.5" cy="100" r="25" />
            <circle cx="287.5" cy="150" r="25" />
            <circle cx="287.5" cy="200" r="25" />
            <circle cx="287.5" cy="250" r="25" />
            <circle cx="287.5" cy="300" r="25" />
            <circle cx="287.5" cy="350" r="25" />
            <circle cx="287.5" cy="400" r="25" />
            <circle cx="331.25" cy="25" r="25" />
            <circle cx="331.25" cy="75" r="25" />
            <circle cx="331.25" cy="125" r="25" />
            <circle cx="331.25" cy="175" r="25" />
            <circle cx="331.25" cy="225" r="25" />
            <circle cx="331.25" cy="275" r="25" />
            <circle cx="331.25" cy="325" r="25" />
            <circle cx="331.25" cy="375" r="25" />
            <circle cx="375" cy="0" r="25" />
            <circle cx="375" cy="50" r="25" />
            <circle cx="375" cy="100" r="25" />
            <circle cx="375" cy="150" r="25" />
            <circle cx="375" cy="200" r="25" />
            <circle cx="375" cy="250" r="25" />
            <circle cx="375" cy="300" r="25" />
            <circle cx="375" cy="350" r="25" />
            <circle cx="375" cy="400" r="25" />
        </g>
        <g transform="translate(0,400)" id="patch2">
            <circle cx="25" cy="0" r="25" />
            <circle cx="25" cy="50" r="25" />
            <circle cx="25" cy="100" r="25" />
            <circle cx="25" cy="150" r="25" />
            <circle cx="25" cy="200" r="25" />
            <circle cx="25" cy="250" r="25" />
            <circle cx="25" cy="300" r="25" />
            <circle cx="25" cy="350" r="25" />
            <circle cx="25" cy="400" r="25" />
            <circle cx="68.75" cy="25" r="25" />
            <circle cx="68.75" cy="75" r="25" />
            <circle cx="68.75" cy="125" r="25" />
            <circle cx="68.75" cy="175" r="25" />
            <circle cx="68.75" cy="225" r="25" />
            <circle cx="68.75" cy="275" r="25" />
            <circle cx="68.75" cy="325" r="25" />
            <circle cx="68.75" cy="375" r="25" />
            <circle cx="112.5" cy="0" r="25" />
            <circle cx="112.5" cy="50" r="25" />
            <circle cx="112.5" cy="100" r="25" />
            <circle cx="112.5" cy="150" r="25" />
            <circle cx="112.5" cy="200" r="25" />
            <circle cx="112.5" cy="250" r="25" />
            <circle cx="112.5" cy="300" r="25" />
            <circle cx="112.5" cy="350" r="25" />
            <circle cx="112.5" cy="400" r="25" />
            <circle cx="156.25" cy="25" r="25" />
            <circle cx="156.25" cy="75" r="25" />
            <circle cx="156.25" cy="125" r="25" />
            <circle cx="156.25" cy="175" r="25" />
            <circle cx="156.25" cy="225" r="25" />
            <circle cx="156.25" cy="275" r="25" />
            <circle cx="156.25" cy="325" r="25" />
            <circle cx="156.25" cy="375" r="25" />
            <circle cx="200" cy="0" r="25" />
            <circle cx="200" cy="50" r="25" />
            <circle cx="200" cy="100" r="25" />
            <circle cx="200" cy="150" r="25" />
            <circle cx="200" cy="200" r="25" />
            <circle cx="200" cy="250" r="25" />
            <circle cx="200" cy="300" r="25" />
            <circle cx="200" cy="350" r="25" />
            <circle cx="200" cy="400" r="25" />
            <circle cx="243.75" cy="25" r="25" />
            <circle cx="243.75" cy="75" r="25" />
            <circle cx="243.75" cy="125" r="25" />
            <circle cx="243.75" cy="175" r="25" />
            <circle cx="243.75" cy="225" r="25" />
            <circle cx="243.75" cy="275" r="25" />
            <circle cx="243.75" cy="325" r="25" />
            <circle cx="243.75" cy="375" r="25" />
            <circle cx="287.5" cy="0" r="25" />
            <circle cx="287.5" cy="50" r="25" />
            <circle cx="287.5" cy="100" r="25" />
            <circle cx="287.5" cy="150" r="25" />
            <circle cx="287.5" cy="200" r="25" />
            <circle cx="287.5" cy="250" r="25" />
            <circle cx="287.5" cy="300" r="25" />
            <circle cx="287.5" cy="350" r="25" />
            <circle cx="287.5" cy="400" r="25" />
            <circle cx="331.25" cy="25" r="25" />
            <circle cx="331.25" cy="75" r="25" />
            <circle cx="331.25" cy="125" r="25" />
            <circle cx="331.25" cy="175" r="25" />
            <circle cx="331.25" cy="225" r="25" />
            <circle cx="331.25" cy="275" r="25" />
            <circle cx="331.25" cy="325" r="25" />
            <circle cx="331.25" cy="375" r="25" />
            <circle cx="375" cy="0" r="25" />
            <circle cx="375" cy="50" r="25" />
            <circle cx="375" cy="100" r="25" />
            <circle cx="375" cy="150" r="25" />
            <circle cx="375" cy="200" r="25" />
            <circle cx="375" cy="250" r="25" />
            <circle cx="375" cy="300" r="25" />
            <circle cx="375" cy="350" r="25" />
            <circle cx="375" cy="400" r="25" />
        </g>
        <g transform="translate(400,400)" id="patch3">
            <circle cx="25" cy="0" r="25" />
            <circle cx="25" cy="50" r="25" />
            <circle cx="25" cy="100" r="25" />
            <circle cx="25" cy="150" r="25" />
            <circle cx="25" cy="200" r="25" />
            <circle cx="25" cy="250" r="25" />
            <circle cx="25" cy="300" r="25" />
            <circle cx="25" cy="350" r="25" />
            <circle cx="25" cy="400" r="25" />
            <circle cx="68.75" cy="25" r="25" />
            <circle cx="68.75" cy="75" r="25" />
            <circle cx="68.75" cy="125" r="25" />
            <circle cx="68.75" cy="175" r="25" />
            <circle cx="68.75" cy="225" r="25" />
            <circle cx="68.75" cy="275" r="25" />
            <circle cx="68.75" cy="325" r="25" />
            <circle cx="68.75" cy="375" r="25" />
            <circle cx="112.5" cy="0" r="25" />
            <circle cx="112.5" cy="50" r="25" />
            <circle cx="112.5" cy="100" r="25" />
            <circle cx="112.5" cy="150" r="25" />
            <circle cx="112.5" cy="200" r="25" />
            <circle cx="112.5" cy="250" r="25" />
            <circle cx="112.5" cy="300" r="25" />
            <circle cx="112.5" cy="350" r="25" />
            <circle cx="112.5" cy="400" r="25" />
            <circle cx="156.25" cy="25" r="25" />
            <circle cx="156.25" cy="75" r="25" />
            <circle cx="156.25" cy="125" r="25" />
            <circle cx="156.25" cy="175" r="25" />
            <circle cx="156.25" cy="225" r="25" />
            <circle cx="156.25" cy="275" r="25" />
            <circle cx="156.25" cy="325" r="25" />
            <circle cx="156.25" cy="375" r="25" />
            <circle cx="200" cy="0" r="25" />
            <circle cx="200" cy="50" r="25" />
            <circle cx="200" cy="100" r="25" />
            <circle cx="200" cy="150" r="25" />
            <circle cx="200" cy="200" r="25" />
            <circle cx="200" cy="250" r="25" />
            <circle cx="200" cy="300" r="25" />
            <circle cx="200" cy="350" r="25" />
            <circle cx="200" cy="400" r="25" />
            <circle cx="243.75" cy="25" r="25" />
            <circle cx="243.75" cy="75" r="25" />
            <circle cx="243.75" cy="125" r="25" />
            <circle cx="243.75" cy="175" r="25" />
            <circle cx="243.75" cy="225" r="25" />
            <circle cx="243.75" cy="275" r="25" />
            <circle cx="243.75" cy="325" r="25" />
            <circle cx="243.75" cy="375" r="25" />
            <circle cx="287.5" cy="0" r="25" />
            <circle cx="287.5" cy="50" r="25" />
            <circle cx="287.5" cy="100" r="25" />
            <circle cx="287.5" cy="150" r="25" />
            <circle cx="287.5" cy="200" r="25" />
            <circle cx="287.5" cy="250" r="25" />
            <circle cx="287.5" cy="300" r="25" />
            <circle cx="287.5" cy="350" r="25" />
            <circle cx="287.5" cy="400" r="25" />
            <circle cx="331.25" cy="25" r="25" />
            <circle cx="331.25" cy="75" r="25" />
            <circle cx="331.25" cy="125" r="25" />
            <circle cx="331.25" cy="175" r="25" />
            <circle cx="331.25" cy="225" r="25" />
            <circle cx="331.25" cy="275" r="25" />
            <circle cx="331.25" cy="325" r="25" />
            <circle cx="331.25" cy="375" r="25" />
            <circle cx="375" cy="0" r="25" />
            <circle cx="375" cy="50" r="25" />
            <circle cx="375" cy="100" r="25" />
            <circle cx="375" cy="150" r="25" />
            <circle cx="375" cy="200" r="25" />
            <circle cx="375" cy="250" r="25" />
            <circle cx="375" cy="300" r="25" />
            <circle cx="375" cy="350" r="25" />
            <circle cx="375" cy="400" r="25" />
        </g>
    </g>
</svg>
